<mxfile host="app.diagrams.net" modified="2021-03-29T21:03:55.966Z" agent="5.0 (Macintosh; Intel Mac OS X 11_0_1) AppleWebKit/537.36 (KHTML, like Gecko) Chrome/89.0.4389.90 Safari/537.36" etag="y9BUeKLNoaMlb88b5Ji5" version="14.5.3" type="github">
  <diagram id="hORtsy15I5TiBe-Y05pS" name="Page-1">
    <mxGraphModel dx="954" dy="635" grid="1" gridSize="10" guides="1" tooltips="1" connect="1" arrows="1" fold="1" page="1" pageScale="1" pageWidth="850" pageHeight="1100" math="0" shadow="0">
      <root>
        <mxCell id="0" />
        <mxCell id="1" parent="0" />
        <mxCell id="4mYLjSB-k0xlrei7reEP-1" value="&lt;div style=&quot;text-align: left&quot;&gt;&lt;span&gt;Users:&amp;nbsp;&lt;/span&gt;&lt;/div&gt;&lt;div style=&quot;text-align: left&quot;&gt;&lt;span&gt;Roles:&amp;nbsp;&lt;/span&gt;&lt;/div&gt;&lt;div style=&quot;text-align: left&quot;&gt;&lt;span&gt;Estates:&amp;nbsp;&lt;/span&gt;&lt;/div&gt;&lt;div style=&quot;text-align: left&quot;&gt;&lt;span&gt;Tasks:&lt;/span&gt;&lt;/div&gt;&lt;div style=&quot;text-align: left&quot;&gt;&lt;span&gt;Assets:&lt;/span&gt;&lt;/div&gt;&lt;div style=&quot;text-align: left&quot;&gt;&lt;span&gt;Payments:&amp;nbsp;&lt;/span&gt;&lt;/div&gt;&lt;div style=&quot;text-align: left&quot;&gt;&lt;span&gt;Onboarding:&lt;/span&gt;&lt;/div&gt;" style="shape=cylinder3;whiteSpace=wrap;html=1;boundedLbl=1;backgroundOutline=1;size=15;fillColor=#f8cecc;strokeColor=#b85450;" vertex="1" parent="1">
          <mxGeometry x="140" y="360" width="550" height="180" as="geometry" />
        </mxCell>
        <mxCell id="4mYLjSB-k0xlrei7reEP-13" style="edgeStyle=orthogonalEdgeStyle;rounded=0;orthogonalLoop=1;jettySize=auto;html=1;exitX=0.5;exitY=1;exitDx=0;exitDy=0;fontSize=20;startArrow=classic;startFill=1;" edge="1" parent="1" source="4mYLjSB-k0xlrei7reEP-2" target="4mYLjSB-k0xlrei7reEP-5">
          <mxGeometry relative="1" as="geometry">
            <Array as="points">
              <mxPoint x="310" y="160" />
              <mxPoint x="425" y="160" />
            </Array>
          </mxGeometry>
        </mxCell>
        <mxCell id="4mYLjSB-k0xlrei7reEP-2" value="End-User Web app (Vue)&lt;br&gt;" style="rounded=1;whiteSpace=wrap;html=1;fillColor=#dae8fc;strokeColor=#6c8ebf;" vertex="1" parent="1">
          <mxGeometry x="220" y="60" width="180" height="80" as="geometry" />
        </mxCell>
        <mxCell id="4mYLjSB-k0xlrei7reEP-12" style="edgeStyle=orthogonalEdgeStyle;rounded=0;orthogonalLoop=1;jettySize=auto;html=1;exitX=0.5;exitY=1;exitDx=0;exitDy=0;fontSize=20;startArrow=classic;startFill=1;" edge="1" parent="1" source="4mYLjSB-k0xlrei7reEP-3" target="4mYLjSB-k0xlrei7reEP-5">
          <mxGeometry relative="1" as="geometry">
            <Array as="points">
              <mxPoint x="110" y="170" />
              <mxPoint x="425" y="170" />
            </Array>
          </mxGeometry>
        </mxCell>
        <mxCell id="4mYLjSB-k0xlrei7reEP-3" value="End-User Native app (iOS)" style="rounded=1;whiteSpace=wrap;html=1;fillColor=#d5e8d4;strokeColor=#82b366;" vertex="1" parent="1">
          <mxGeometry x="20" y="60" width="180" height="80" as="geometry" />
        </mxCell>
        <mxCell id="4mYLjSB-k0xlrei7reEP-5" value="Back-end&amp;nbsp; (PHP)" style="rounded=1;whiteSpace=wrap;html=1;fillColor=#fff2cc;strokeColor=#d6b656;" vertex="1" parent="1">
          <mxGeometry x="30" y="230" width="790" height="110" as="geometry" />
        </mxCell>
        <mxCell id="4mYLjSB-k0xlrei7reEP-10" style="edgeStyle=orthogonalEdgeStyle;rounded=0;orthogonalLoop=1;jettySize=auto;html=1;exitX=0.5;exitY=1;exitDx=0;exitDy=0;entryX=0.75;entryY=0;entryDx=0;entryDy=0;fontSize=20;startArrow=classic;startFill=1;" edge="1" parent="1" source="4mYLjSB-k0xlrei7reEP-6" target="4mYLjSB-k0xlrei7reEP-5">
          <mxGeometry relative="1" as="geometry" />
        </mxCell>
        <mxCell id="4mYLjSB-k0xlrei7reEP-6" value="Advisor web app (React)" style="rounded=1;whiteSpace=wrap;html=1;fillColor=#dae8fc;strokeColor=#6c8ebf;" vertex="1" parent="1">
          <mxGeometry x="520" y="60" width="310" height="100" as="geometry" />
        </mxCell>
        <mxCell id="4mYLjSB-k0xlrei7reEP-7" value="Atticus Architecture" style="text;html=1;strokeColor=none;fillColor=none;align=left;verticalAlign=middle;whiteSpace=wrap;rounded=0;fontSize=20;fontStyle=1" vertex="1" parent="1">
          <mxGeometry x="20" y="20" width="270" height="20" as="geometry" />
        </mxCell>
        <mxCell id="4mYLjSB-k0xlrei7reEP-4" value="End-User Task Admin app (PHP)" style="rounded=1;whiteSpace=wrap;html=1;fillColor=#fff2cc;strokeColor=#d6b656;" vertex="1" parent="1">
          <mxGeometry x="50" y="265" width="270" height="60" as="geometry" />
        </mxCell>
      </root>
    </mxGraphModel>
  </diagram>
</mxfile>
